<svg width="32" height="32" viewBox="0 0 32 32" fill="none" xmlns="http://www.w3.org/2000/svg">
    <!-- Calculator Body (Octagon Shape) with transparent background -->
    <path d="M4 1 L28 1 L31 4 L31 28 L28 31 L4 31 L1 28 L1 4 Z" fill="#D81E3F" stroke="#2E040C" stroke-width="2"/>

    <!-- Calculator Screen -->
    <rect x="6" y="6" width="20" height="8" fill="#B4E3C5" rx="2" ry="2"/>
    <rect x="6.5" y="6.5" width="19" height="7" stroke="#2E040C" stroke-width="1" rx="1.5" ry="1.5"/>

    <!-- Calculator Buttons -->
    <rect x="5" y="16" width="6" height="5" fill="#5A5A5A" rx="1" ry="1"/>
    <rect x="13" y="16" width="6" height="5" fill="#5A5A5A" rx="1" ry="1"/>
    <rect x="21" y="16" width="6" height="5" fill="#F08A24" rx="1" ry="1"/>
    
    <rect x="5" y="23" width="6" height="5" fill="#5A5A5A" rx="1" ry="1"/>
    <rect x="13" y="23" width="6" height="5" fill="#5A5A5A" rx="1" ry="1"/>
    <rect x="21" y="23" width="6" height="5" fill="#5A5A5A" rx="1" ry="1"/>
</svg>



